<svg xmlns="http://www.w3.org/2000/svg" width="32" height="32" viewBox="0 0 32 32"><path d="M32 20q0 2.964-2.268 8.054l-.188.429q-.134.304-.241.536t-.232.393q-.214.304-.5.304-.268 0-.42-.179t-.152-.446q0-.161.045-.473t.045-.42q.089-1.214.089-2.196 0-1.804-.313-3.232t-.866-2.473-1.429-1.804-1.884-1.241-2.375-.759-2.75-.384-3.134-.107h-4v4.571q0 .464-.339.804t-.804.339-.804-.339L.337 12.234q-.339-.339-.339-.804t.339-.804L9.48 1.483q.339-.339.804-.339t.804.339.339.804v4.571h4q12.732 0 15.625 7.196.946 2.393.946 5.946z"/></svg>