<svg xmlns="http://www.w3.org/2000/svg" width="34" height="32" viewBox="0 0 34 32"><path d="M22.857 26.857q0 .232-.17.402t-.402.17H5.142q-.143 0-.241-.036t-.161-.125-.098-.143-.054-.205-.018-.205V16.001H1.141q-.464 0-.804-.339t-.339-.804q0-.429.268-.732L5.98 7.269q.339-.393.875-.393t.875.393l5.714 6.857q.268.304.268.732 0 .464-.339.804t-.804.339H9.14v6.857h10.286q.286 0 .446.196l2.857 3.429q.125.196.125.375zm11.429-7.428q0 .429-.268.732l-5.714 6.857q-.357.411-.875.411t-.875-.411l-5.714-6.857q-.268-.304-.268-.732 0-.464.339-.804t.804-.339h3.429v-6.857H14.858q-.286 0-.446-.214l-2.857-3.429q-.125-.161-.125-.357 0-.232.17-.402t.402-.17h17.143q.143 0 .241.036t.161.125.098.143.054.205.018.205v10.714h3.429q.464 0 .804.339t.339.804z"/></svg>